<svg version="1.0" preserveAspectRatio="xMidYMid meet" height="500" viewBox="0 0 375 374.999991" zoomAndPan="magnify" width="500" xmlns:xlink="http://www.w3.org/1999/xlink" xmlns="http://www.w3.org/2000/svg"><defs><g></g></defs><rect fill-opacity="1" height="449.999989" y="-37.499999" fill="rgb(100%, 100%, 100%)" width="450" x="-37.5"></rect><rect fill-opacity="1" height="449.999989" y="-37.499999" fill="rgb(100%, 100%, 100%)" width="450" x="-37.5"></rect><rect fill-opacity="1" height="449.999989" y="-37.499999" fill="rgb(100%, 100%, 100%)" width="450" x="-37.5"></rect><rect fill-opacity="1" height="449.999989" y="-37.499999" fill="rgb(100%, 100%, 100%)" width="450" x="-37.5"></rect><g fill-opacity="1" fill="rgb(3.138733%, 30.198669%, 14.898682%)"><g transform="translate(15.923905, 196.129927)"><g><path d="M 2.769531 -10.152344 C 2.664062 -4.304688 0.71875 0.613281 4.820312 0.613281 C 7.691406 0.613281 8.511719 0 11.996094 0 C 17.226562 0 19.992188 0.613281 25.222656 0.613281 C 35.785156 0.613281 46.242188 -4.511719 46.242188 -14.355469 C 46.242188 -33.015625 18.867188 -30.863281 18.867188 -40.296875 C 18.867188 -43.679688 20.917969 -45.933594 24.8125 -45.933594 C 32.808594 -45.933594 35.375 -33.9375 40.089844 -33.9375 C 46.140625 -33.9375 43.269531 -39.988281 38.65625 -50.34375 C 38.140625 -51.574219 37.320312 -51.882812 36.296875 -51.882812 C 34.964844 -51.882812 33.117188 -51.265625 30.757812 -51.265625 C 27.683594 -51.265625 25.734375 -51.882812 21.738281 -51.882812 C 9.023438 -51.882812 2.5625 -45.320312 2.5625 -36.605469 C 2.5625 -17.636719 31.273438 -17.839844 31.375 -9.84375 C 31.375 -6.765625 29.015625 -5.84375 25.734375 -5.84375 C 11.585938 -5.84375 8.101562 -20.609375 4.101562 -20.609375 C 0.410156 -20.609375 2.769531 -16.40625 2.769531 -10.152344 Z M 2.769531 -10.152344"></path></g></g></g><g fill-opacity="1" fill="rgb(3.138733%, 30.198669%, 14.898682%)"><g transform="translate(64.213052, 196.129927)"><g><path d="M 0.511719 -1.949219 C 0.511719 0 2.253906 0.613281 4.203125 0.613281 C 6.5625 0.613281 7.382812 0 9.433594 0 C 11.484375 0 12.304688 0.613281 14.664062 0.613281 C 16.609375 0.613281 18.351562 0 18.351562 -1.949219 C 18.351562 -4.410156 15.070312 -4.203125 15.070312 -10.253906 C 15.070312 -13.433594 16.710938 -15.277344 19.070312 -15.277344 L 28.503906 -15.277344 C 30.863281 -15.277344 32.503906 -13.433594 32.503906 -10.253906 C 32.503906 -4.203125 29.9375 -4.921875 29.9375 -1.949219 C 29.9375 0.101562 31.886719 0.613281 34.347656 0.613281 C 37.015625 0.613281 40.296875 0 42.347656 0 C 46.550781 0 50.242188 0.613281 52.90625 0.613281 C 55.265625 0.613281 56.699219 0.101562 56.699219 -1.949219 C 56.699219 -4 55.164062 -4.203125 52.90625 -7.074219 C 49.523438 -11.382812 41.117188 -42.242188 38.140625 -49.523438 C 37.21875 -51.777344 36.296875 -51.882812 34.757812 -51.882812 C 32.707031 -51.882812 30.964844 -51.265625 26.964844 -51.265625 C 23.378906 -51.265625 22.863281 -51.882812 20.300781 -51.882812 C 18.148438 -51.882812 16.097656 -51.574219 16.097656 -49.726562 C 16.097656 -46.960938 20.199219 -48.292969 18.148438 -42.140625 C 14.253906 -30.453125 8.816406 -12.203125 6.355469 -8.714844 C 3.074219 -4.101562 0.511719 -4.410156 0.511719 -1.949219 Z M 17.941406 -22.660156 C 19.789062 -27.890625 21.53125 -34.246094 22.863281 -38.039062 C 23.171875 -38.859375 23.480469 -39.269531 23.789062 -39.269531 C 24.09375 -39.269531 24.402344 -38.859375 24.710938 -37.9375 C 25.839844 -34.144531 27.480469 -27.890625 29.324219 -22.660156 C 29.835938 -21.222656 29.222656 -20.300781 27.785156 -20.300781 L 19.480469 -20.300781 C 18.046875 -20.300781 17.429688 -21.222656 17.941406 -22.660156 Z M 17.941406 -22.660156"></path></g></g></g><g fill-opacity="1" fill="rgb(3.138733%, 30.198669%, 14.898682%)"><g transform="translate(121.421853, 196.129927)"><g><path d="M 1.023438 -49.316406 C 1.023438 -46.34375 4.511719 -47.675781 4.511719 -38.039062 L 4.511719 -13.226562 C 4.511719 -3.589844 1.023438 -4.921875 1.023438 -1.949219 C 1.023438 0.101562 2.769531 0.613281 5.125 0.613281 C 7.585938 0.613281 10.664062 0 12.714844 0 C 14.664062 0 17.636719 0.613281 19.992188 0.613281 C 22.351562 0.613281 24.09375 0.101562 24.09375 -1.949219 C 24.09375 -4.921875 20.609375 -3.589844 20.609375 -13.226562 L 20.609375 -18.867188 C 20.609375 -20.402344 21.632812 -21.429688 23.171875 -21.429688 C 30.964844 -21.429688 26.144531 0.613281 33.21875 0.613281 C 35.886719 0.613281 40.5 0 41.832031 0 C 44.5 0 46.960938 0.613281 48.703125 0.613281 C 50.242188 0.613281 51.265625 0.101562 51.265625 -1.84375 C 51.265625 -4.203125 48.804688 -3.792969 46.960938 -7.585938 C 43.882812 -13.84375 40.398438 -23.992188 37.015625 -23.992188 C 42.652344 -26.351562 46.550781 -30.453125 46.550781 -37.21875 C 46.550781 -50.035156 36.296875 -51.882812 25.941406 -51.882812 C 20.609375 -51.882812 16.097656 -51.367188 11.792969 -51.367188 C 9.332031 -51.367188 6.5625 -51.984375 4.410156 -51.984375 C 2.460938 -51.984375 1.023438 -51.472656 1.023438 -49.316406 Z M 20.507812 -30.347656 L 20.507812 -43.371094 C 20.507812 -45.011719 21.632812 -45.730469 23.070312 -45.730469 C 27.582031 -45.730469 30.144531 -42.757812 30.144531 -37.015625 C 30.144531 -31.476562 27.273438 -28.09375 23.070312 -28.09375 C 21.632812 -28.09375 20.507812 -28.710938 20.507812 -30.347656 Z M 20.507812 -30.347656"></path></g></g></g><g fill-opacity="1" fill="rgb(3.138733%, 30.198669%, 14.898682%)"><g transform="translate(174.222079, 196.129927)"><g><path d="M 12.714844 0 C 16.710938 0 22.96875 0.613281 27.070312 0.613281 C 40.089844 0.613281 47.574219 -4 47.574219 -14.867188 C 47.574219 -22.558594 41.730469 -29.53125 32.398438 -28.195312 C 28.300781 -27.582031 28.195312 -27.992188 28.195312 -28.402344 C 28.195312 -29.632812 42.859375 -29.632812 42.859375 -40.398438 C 42.859375 -47.78125 36.808594 -51.882812 28.605469 -51.882812 C 21.839844 -51.882812 18.96875 -51.265625 12.714844 -51.265625 C 10.664062 -51.265625 7.585938 -51.882812 5.125 -51.882812 C 2.769531 -51.882812 1.023438 -51.367188 1.023438 -49.316406 C 1.023438 -46.34375 4.511719 -47.675781 4.511719 -38.039062 L 4.511719 -13.226562 C 4.511719 -3.589844 1.023438 -4.921875 1.023438 -1.949219 C 1.023438 0.101562 2.769531 0.613281 5.125 0.613281 C 7.585938 0.613281 10.664062 0 12.714844 0 Z M 21.019531 -22.660156 C 21.019531 -24.300781 22.148438 -25.019531 23.582031 -25.019531 C 28.402344 -25.019531 30.453125 -20.609375 30.453125 -15.277344 C 30.453125 -7.894531 28.300781 -5.125 23.582031 -5.125 C 22.148438 -5.125 21.019531 -5.84375 21.019531 -7.484375 Z M 21.019531 -33.324219 L 21.019531 -43.371094 C 21.019531 -44.910156 22.042969 -45.730469 23.582031 -45.730469 C 25.632812 -45.730469 27.582031 -43.882812 27.582031 -38.449219 C 27.582031 -33.9375 25.632812 -31.066406 23.582031 -31.066406 C 22.25 -31.066406 21.019531 -31.476562 21.019531 -33.324219 Z M 21.019531 -33.324219"></path></g></g></g><g fill-opacity="1" fill="rgb(3.138733%, 30.198669%, 14.898682%)"><g transform="translate(223.844046, 196.129927)"><g><path d="M 1.023438 -1.949219 C 1.023438 0.101562 2.769531 0.613281 5.125 0.613281 C 7.585938 0.613281 10.664062 0 12.714844 0 C 14.765625 0 17.839844 0.613281 20.300781 0.613281 C 22.660156 0.613281 24.402344 0.101562 24.402344 -1.949219 C 24.402344 -4.921875 20.917969 -3.589844 20.917969 -13.226562 L 20.917969 -38.039062 C 20.917969 -47.675781 24.402344 -46.34375 24.402344 -49.316406 C 24.402344 -51.367188 22.660156 -51.882812 20.300781 -51.882812 C 17.839844 -51.882812 14.765625 -51.265625 12.714844 -51.265625 C 10.664062 -51.265625 7.585938 -51.882812 5.125 -51.882812 C 2.769531 -51.882812 1.023438 -51.367188 1.023438 -49.316406 C 1.023438 -46.34375 4.511719 -47.675781 4.511719 -38.039062 L 4.511719 -13.226562 C 4.511719 -3.589844 1.023438 -4.921875 1.023438 -1.949219 Z M 1.023438 -1.949219"></path></g></g></g><g fill-opacity="1" fill="rgb(3.138733%, 30.198669%, 14.898682%)"><g transform="translate(249.270173, 196.129927)"><g><path d="M 2.050781 -25.632812 C 2.050781 -10.867188 11.894531 0.613281 27.582031 0.613281 C 54.136719 0.613281 56.1875 -21.121094 45.625 -21.121094 C 36.296875 -21.121094 41.011719 -4.921875 29.835938 -4.921875 C 22.25 -4.921875 19.480469 -14.96875 19.480469 -25.632812 C 19.480469 -36.296875 22.453125 -45.933594 29.632812 -45.933594 C 39.679688 -45.933594 40.707031 -33.9375 46.652344 -33.9375 C 51.472656 -33.9375 47.984375 -41.628906 44.601562 -50.34375 C 44.089844 -51.574219 43.269531 -51.882812 42.140625 -51.882812 C 40.5 -51.882812 38.449219 -51.265625 36.089844 -51.265625 C 33.015625 -51.265625 31.578125 -51.882812 27.582031 -51.882812 C 12.507812 -51.882812 2.050781 -40.398438 2.050781 -25.632812 Z M 2.050781 -25.632812"></path></g></g></g><g fill-opacity="1" fill="rgb(3.138733%, 30.198669%, 14.898682%)"><g transform="translate(301.865332, 196.129927)"><g><path d="M 0.511719 -1.949219 C 0.511719 0 2.253906 0.613281 4.203125 0.613281 C 6.5625 0.613281 7.382812 0 9.433594 0 C 11.484375 0 12.304688 0.613281 14.664062 0.613281 C 16.609375 0.613281 18.351562 0 18.351562 -1.949219 C 18.351562 -4.410156 15.070312 -4.203125 15.070312 -10.253906 C 15.070312 -13.433594 16.710938 -15.277344 19.070312 -15.277344 L 28.503906 -15.277344 C 30.863281 -15.277344 32.503906 -13.433594 32.503906 -10.253906 C 32.503906 -4.203125 29.9375 -4.921875 29.9375 -1.949219 C 29.9375 0.101562 31.886719 0.613281 34.347656 0.613281 C 37.015625 0.613281 40.296875 0 42.347656 0 C 46.550781 0 50.242188 0.613281 52.90625 0.613281 C 55.265625 0.613281 56.699219 0.101562 56.699219 -1.949219 C 56.699219 -4 55.164062 -4.203125 52.90625 -7.074219 C 49.523438 -11.382812 41.117188 -42.242188 38.140625 -49.523438 C 37.21875 -51.777344 36.296875 -51.882812 34.757812 -51.882812 C 32.707031 -51.882812 30.964844 -51.265625 26.964844 -51.265625 C 23.378906 -51.265625 22.863281 -51.882812 20.300781 -51.882812 C 18.148438 -51.882812 16.097656 -51.574219 16.097656 -49.726562 C 16.097656 -46.960938 20.199219 -48.292969 18.148438 -42.140625 C 14.253906 -30.453125 8.816406 -12.203125 6.355469 -8.714844 C 3.074219 -4.101562 0.511719 -4.410156 0.511719 -1.949219 Z M 17.941406 -22.660156 C 19.789062 -27.890625 21.53125 -34.246094 22.863281 -38.039062 C 23.171875 -38.859375 23.480469 -39.269531 23.789062 -39.269531 C 24.09375 -39.269531 24.402344 -38.859375 24.710938 -37.9375 C 25.839844 -34.144531 27.480469 -27.890625 29.324219 -22.660156 C 29.835938 -21.222656 29.222656 -20.300781 27.785156 -20.300781 L 19.480469 -20.300781 C 18.046875 -20.300781 17.429688 -21.222656 17.941406 -22.660156 Z M 17.941406 -22.660156"></path></g></g></g><g fill-opacity="1" fill="rgb(70.199585%, 38.42926%, 30.979919%)"><g transform="translate(277.918195, 121.510094)"><g><path d="M -0.015625 0.00390625 L -2.160156 -9.085938 L -4.074219 -8.632812 L -2.433594 -1.6875 C -2.9375 -1.773438 -3.53125 -2.015625 -4.203125 -2.375 C -4.980469 -2.828125 -5.664062 -3.375 -6.226562 -4 C -7.371094 -5.265625 -8.390625 -6.148438 -9.296875 -6.625 C -10.304688 -7.164062 -11.339844 -7.316406 -12.417969 -7.0625 C -13.136719 -6.890625 -13.804688 -6.492188 -14.390625 -5.90625 C -14.886719 -5.375 -15.273438 -4.679688 -15.515625 -3.808594 C -15.707031 -3.003906 -15.703125 -2.179688 -15.5 -1.328125 C -15.292969 -0.445312 -14.910156 0.292969 -14.390625 0.894531 C -13.820312 1.554688 -13.179688 2.007812 -12.460938 2.269531 C -11.59375 2.582031 -10.757812 2.609375 -9.921875 2.34375 L -10.382812 0.398438 C -10.855469 0.578125 -11.34375 0.570312 -11.867188 0.386719 C -12.246094 0.25 -12.605469 -0.0273438 -12.957031 -0.425781 C -13.25 -0.789062 -13.460938 -1.242188 -13.589844 -1.78125 C -13.710938 -2.304688 -13.710938 -2.804688 -13.609375 -3.257812 C -13.480469 -3.738281 -13.285156 -4.148438 -13.007812 -4.507812 C -12.734375 -4.8125 -12.382812 -5.015625 -11.976562 -5.113281 L -11.796875 -5.152344 C -11.242188 -5.285156 -10.660156 -5.164062 -10.054688 -4.789062 C -9.347656 -4.351562 -8.5625 -3.65625 -7.710938 -2.683594 C -7.332031 -2.253906 -6.726562 -1.742188 -5.890625 -1.113281 C -5.128906 -0.53125 -4.292969 -0.125 -3.367188 0.140625 C -2.480469 0.378906 -1.699219 0.402344 -0.980469 0.230469 Z M -0.015625 0.00390625"></path></g></g></g><g fill-opacity="1" fill="rgb(70.199585%, 38.42926%, 30.979919%)"><g transform="translate(275.169493, 110.999042)"><g><path d="M 1.011719 -6.746094 C 1.15625 -7.980469 0.957031 -9.15625 0.394531 -10.285156 C -0.121094 -11.363281 -0.941406 -12.289062 -2.035156 -13.058594 C -3.082031 -13.789062 -4.28125 -14.234375 -5.632812 -14.394531 C -6.96875 -14.550781 -8.238281 -14.394531 -9.460938 -13.929688 C -10.667969 -13.445312 -11.683594 -12.71875 -12.472656 -11.761719 C -13.261719 -10.773438 -13.726562 -9.695312 -13.867188 -8.492188 C -14.015625 -7.257812 -13.8125 -6.085938 -13.265625 -4.972656 C -12.707031 -3.84375 -11.902344 -2.917969 -10.839844 -2.183594 C -9.742188 -1.449219 -8.523438 -1 -7.222656 -0.847656 C -5.890625 -0.691406 -4.621094 -0.847656 -3.398438 -1.3125 C -2.140625 -1.808594 -1.140625 -2.519531 -0.386719 -3.460938 C 0.398438 -4.417969 0.867188 -5.511719 1.011719 -6.746094 Z M -0.957031 -6.980469 C -1.0625 -6.09375 -1.386719 -5.320312 -1.972656 -4.664062 C -2.542969 -3.984375 -3.277344 -3.480469 -4.179688 -3.144531 C -5.082031 -2.8125 -6.023438 -2.703125 -6.992188 -2.816406 C -7.992188 -2.933594 -8.886719 -3.257812 -9.667969 -3.789062 C -10.484375 -4.324219 -11.085938 -4.988281 -11.480469 -5.777344 C -11.863281 -6.566406 -12.019531 -7.398438 -11.917969 -8.265625 C -11.816406 -9.132812 -11.472656 -9.886719 -10.921875 -10.566406 C -10.351562 -11.242188 -9.613281 -11.75 -8.695312 -12.097656 C -7.792969 -12.429688 -6.847656 -12.558594 -5.863281 -12.441406 C -4.863281 -12.324219 -3.972656 -11.984375 -3.207031 -11.453125 C -2.390625 -10.917969 -1.792969 -10.238281 -1.394531 -9.449219 C -0.996094 -8.65625 -0.855469 -7.847656 -0.957031 -6.980469 Z M -0.957031 -6.980469"></path></g></g></g><g fill-opacity="1" fill="rgb(70.199585%, 38.42926%, 30.979919%)"><g transform="translate(277.279181, 96.480695)"><g><path d="M -0.015625 -0.0078125 L 4.175781 -8.351562 L 2.421875 -9.234375 L -0.785156 -2.855469 C -1.113281 -3.246094 -1.414062 -3.8125 -1.695312 -4.519531 C -2.003906 -5.367188 -2.175781 -6.222656 -2.203125 -7.066406 C -2.269531 -8.769531 -2.484375 -10.101562 -2.871094 -11.046875 C -3.296875 -12.105469 -3.996094 -12.890625 -4.988281 -13.386719 C -5.648438 -13.71875 -6.414062 -13.839844 -7.238281 -13.765625 C -7.960938 -13.679688 -8.703125 -13.394531 -9.449219 -12.882812 C -10.109375 -12.390625 -10.636719 -11.753906 -11.03125 -10.972656 C -11.4375 -10.160156 -11.617188 -9.351562 -11.605469 -8.554688 C -11.59375 -7.683594 -11.390625 -6.921875 -11.007812 -6.261719 C -10.542969 -5.464844 -9.921875 -4.90625 -9.109375 -4.574219 L -8.214844 -6.363281 C -8.695312 -6.527344 -9.0625 -6.84375 -9.347656 -7.324219 C -9.546875 -7.671875 -9.644531 -8.113281 -9.660156 -8.648438 C -9.652344 -9.113281 -9.523438 -9.59375 -9.273438 -10.089844 C -9.03125 -10.570312 -8.710938 -10.953125 -8.339844 -11.238281 C -7.933594 -11.523438 -7.519531 -11.710938 -7.078125 -11.804688 C -6.671875 -11.867188 -6.273438 -11.796875 -5.898438 -11.609375 L -5.734375 -11.527344 C -5.222656 -11.269531 -4.855469 -10.804688 -4.632812 -10.125 C -4.371094 -9.335938 -4.214844 -8.300781 -4.1875 -7.007812 C -4.171875 -6.4375 -4.039062 -5.65625 -3.800781 -4.632812 C -3.589844 -3.703125 -3.210938 -2.851562 -2.671875 -2.054688 C -2.144531 -1.304688 -1.5625 -0.785156 -0.902344 -0.453125 Z M -0.015625 -0.0078125"></path></g></g></g><g fill-opacity="1" fill="rgb(70.199585%, 38.42926%, 30.979919%)"><g transform="translate(282.313272, 86.670795)"><g><path d="M -0.0117188 -0.0117188 L 6.472656 -6.734375 L 5.058594 -8.097656 L 0.101562 -2.960938 C -0.0976562 -3.429688 -0.214844 -4.058594 -0.277344 -4.816406 C -0.316406 -5.71875 -0.226562 -6.589844 -0.00390625 -7.402344 C 0.445312 -9.046875 0.632812 -10.382812 0.542969 -11.402344 C 0.453125 -12.539062 0.0195312 -13.496094 -0.777344 -14.265625 C -1.308594 -14.777344 -2.003906 -15.121094 -2.816406 -15.296875 C -3.53125 -15.425781 -4.328125 -15.378906 -5.1875 -15.113281 C -5.96875 -14.835938 -6.660156 -14.386719 -7.265625 -13.757812 C -7.898438 -13.105469 -8.3125 -12.382812 -8.535156 -11.621094 C -8.78125 -10.78125 -8.816406 -10 -8.648438 -9.253906 C -8.441406 -8.355469 -8.011719 -7.636719 -7.335938 -7.078125 L -5.949219 -8.515625 C -6.359375 -8.820312 -6.617188 -9.230469 -6.746094 -9.773438 C -6.835938 -10.164062 -6.796875 -10.617188 -6.648438 -11.128906 C -6.503906 -11.574219 -6.238281 -11.992188 -5.851562 -12.390625 C -5.480469 -12.777344 -5.058594 -13.046875 -4.621094 -13.210938 C -4.148438 -13.359375 -3.699219 -13.417969 -3.246094 -13.378906 C -2.839844 -13.3125 -2.480469 -13.128906 -2.179688 -12.835938 L -2.046875 -12.710938 C -1.632812 -12.3125 -1.421875 -11.757812 -1.410156 -11.046875 C -1.394531 -10.214844 -1.554688 -9.179688 -1.914062 -7.9375 C -2.070312 -7.386719 -2.171875 -6.601562 -2.25 -5.554688 C -2.328125 -4.601562 -2.214844 -3.679688 -1.9375 -2.757812 C -1.660156 -1.882812 -1.257812 -1.210938 -0.726562 -0.699219 Z M -0.0117188 -0.0117188"></path></g></g></g><g fill-opacity="1" fill="rgb(70.199585%, 38.42926%, 30.979919%)"><g transform="translate(297.192155, 74.543807)"><g><path d="M 5.148438 -1.160156 C 6.058594 -1.402344 6.855469 -1.808594 7.535156 -2.375 C 8.238281 -2.929688 8.726562 -3.582031 9.015625 -4.320312 C 9.292969 -5.089844 9.355469 -5.835938 9.15625 -6.566406 C 9 -7.152344 8.679688 -7.691406 8.242188 -8.164062 C 7.8125 -8.589844 7.253906 -8.925781 6.574219 -9.195312 C 5.941406 -9.40625 5.238281 -9.496094 4.441406 -9.492188 L 4.425781 -9.484375 L 1.894531 -9.257812 C 1.183594 -9.242188 0.597656 -9.363281 0.101562 -9.644531 C -0.390625 -9.929688 -0.695312 -10.285156 -0.808594 -10.707031 C -0.90625 -11.0625 -0.867188 -11.4375 -0.679688 -11.835938 C -0.492188 -12.25 -0.179688 -12.632812 0.253906 -12.957031 C 0.691406 -13.28125 1.195312 -13.539062 1.777344 -13.695312 C 2.363281 -13.855469 2.929688 -13.882812 3.46875 -13.820312 C 4.007812 -13.757812 4.453125 -13.582031 4.835938 -13.320312 C 5.269531 -13 5.515625 -12.613281 5.570312 -12.144531 L 7.5 -12.660156 C 7.347656 -13.488281 6.910156 -14.207031 6.195312 -14.796875 C 5.601562 -15.265625 4.855469 -15.585938 3.9375 -15.757812 C 3.132812 -15.90625 2.242188 -15.855469 1.269531 -15.59375 C 0.425781 -15.367188 -0.355469 -14.96875 -1.109375 -14.417969 C -1.800781 -13.882812 -2.289062 -13.230469 -2.59375 -12.433594 C -2.878906 -11.679688 -2.921875 -10.9375 -2.722656 -10.191406 C -2.542969 -9.527344 -2.242188 -8.980469 -1.785156 -8.582031 C -1.3125 -8.117188 -0.757812 -7.796875 -0.125 -7.585938 C 0.496094 -7.335938 1.203125 -7.230469 1.996094 -7.265625 L 4.539062 -7.5 C 5.234375 -7.511719 5.84375 -7.378906 6.328125 -7.128906 C 6.800781 -6.855469 7.105469 -6.503906 7.226562 -6.046875 C 7.328125 -5.675781 7.289062 -5.300781 7.109375 -4.9375 C 6.894531 -4.496094 6.578125 -4.132812 6.160156 -3.8125 C 5.726562 -3.472656 5.21875 -3.230469 4.636719 -3.074219 C 4.050781 -2.914062 3.488281 -2.867188 2.945312 -2.949219 C 2.40625 -3.011719 1.949219 -3.167969 1.578125 -3.449219 C 1.132812 -3.75 0.886719 -4.136719 0.847656 -4.609375 L -1.082031 -4.09375 C -0.921875 -3.230469 -0.488281 -2.53125 0.238281 -1.960938 C 0.898438 -1.441406 1.640625 -1.136719 2.476562 -1.011719 C 3.367188 -0.871094 4.257812 -0.917969 5.148438 -1.160156 Z M 5.148438 -1.160156"></path></g></g></g><g fill-opacity="1" fill="rgb(70.199585%, 38.42926%, 30.979919%)"><g transform="translate(309.142041, 71.932684)"><g><path d="M 0 0 L 1.980469 -0.0859375 L 1.351562 -14.652344 L -0.628906 -14.566406 Z M 0 0"></path></g></g></g><g fill-opacity="1" fill="rgb(70.199585%, 38.42926%, 30.979919%)"><g transform="translate(312.836323, 71.35763)"><g><path d="M 11.871094 -12.605469 L 9.863281 -1.921875 L 4.640625 -13.960938 L 2.691406 -14.328125 L 0 0 L 1.949219 0.367188 L 3.996094 -10.527344 L 9.308594 1.75 L 11.125 2.089844 L 13.820312 -12.238281 Z M 11.871094 -12.605469"></path></g></g></g><g fill-opacity="1" fill="rgb(70.199585%, 38.42926%, 30.979919%)"><g transform="translate(325.003404, 73.454524)"><g><path d="M 5.828125 3.894531 C 6.597656 4.371094 7.449219 4.6875 8.421875 4.839844 C 9.285156 4.980469 10.21875 4.910156 11.234375 4.652344 C 12.128906 4.421875 12.992188 3.988281 13.8125 3.371094 C 14.125 3.128906 14.484375 2.800781 14.886719 2.378906 C 15.148438 2.085938 15.441406 1.714844 15.734375 1.246094 L 16.257812 0.402344 L 10.730469 -3.046875 L 9.679688 -1.363281 L 13.472656 1 L 13.429688 1.035156 L 13.441406 1.019531 C 13.1875 1.296875 12.914062 1.542969 12.621094 1.796875 C 11.726562 2.464844 10.75 2.824219 9.714844 2.894531 C 8.660156 2.96875 7.71875 2.734375 6.875 2.210938 C 6.09375 1.722656 5.503906 1.078125 5.144531 0.257812 C 4.726562 -0.59375 4.554688 -1.492188 4.644531 -2.429688 C 4.703125 -3.382812 5.007812 -4.28125 5.53125 -5.121094 C 6.066406 -5.976562 6.738281 -6.644531 7.578125 -7.132812 C 8.429688 -7.609375 9.296875 -7.859375 10.222656 -7.878906 C 11.097656 -7.886719 11.917969 -7.648438 12.71875 -7.152344 C 13.429688 -6.707031 14 -6.09375 14.394531 -5.332031 C 14.800781 -4.523438 14.996094 -3.632812 14.96875 -2.699219 L 16.820312 -1.542969 C 17.09375 -3.09375 16.929688 -4.542969 16.3125 -5.898438 C 15.742188 -7.144531 14.90625 -8.121094 13.765625 -8.832031 C 12.683594 -9.507812 11.507812 -9.847656 10.242188 -9.84375 C 8.925781 -9.832031 7.71875 -9.515625 6.609375 -8.882812 C 5.492188 -8.234375 4.570312 -7.324219 3.851562 -6.171875 C 3.136719 -5.03125 2.726562 -3.800781 2.652344 -2.503906 C 2.570312 -1.167969 2.808594 0.0703125 3.382812 1.179688 C 3.953125 2.328125 4.773438 3.234375 5.828125 3.894531 Z M 5.828125 3.894531"></path></g></g></g><g fill-opacity="1" fill="rgb(70.199585%, 38.42926%, 30.979919%)"><g transform="translate(337.564472, 81.418056)"><g><path d="M 0 0 L 1.226562 1.726562 L 5.066406 0.75 L 8.671875 5.832031 L 6.484375 9.136719 L 7.707031 10.863281 L 16.363281 -2.136719 L 15.128906 -3.875 Z M 7.105469 0.230469 L 13.492188 -1.417969 L 9.835938 4.082031 Z M 7.105469 0.230469"></path></g></g></g><g fill-opacity="1" fill="rgb(70.199585%, 38.42926%, 30.979919%)"><g transform="translate(345.568726, 93.357683)"><g><path d="M 0 0 L 0.535156 1.910156 L 6 0.375 L 6.824219 3.300781 C 7.046875 4.09375 7.449219 4.785156 8.027344 5.355469 C 8.5625 5.902344 9.25 6.300781 10.050781 6.53125 C 10.804688 6.738281 11.574219 6.75 12.351562 6.53125 C 13.128906 6.3125 13.78125 5.902344 14.335938 5.328125 C 14.894531 4.71875 15.257812 4.023438 15.449219 3.273438 C 15.632812 2.488281 15.621094 1.707031 15.394531 0.898438 L 14.039062 -3.9375 Z M 7.910156 -0.160156 L 12.664062 -1.496094 L 13.484375 1.433594 C 13.613281 1.886719 13.617188 2.335938 13.519531 2.800781 C 13.398438 3.238281 13.195312 3.625 12.902344 3.953125 C 12.59375 4.28125 12.238281 4.503906 11.816406 4.621094 C 11.378906 4.746094 10.960938 4.742188 10.539062 4.613281 C 10.105469 4.492188 9.726562 4.265625 9.414062 3.953125 C 9.070312 3.597656 8.855469 3.203125 8.730469 2.765625 Z M 7.910156 -0.160156"></path></g></g></g><g fill-opacity="1" fill="rgb(70.199585%, 38.42926%, 30.979919%)"><g transform="translate(348.867257, 103.573904)"><g><path d="M -0.890625 7.441406 C -1.011719 8.78125 -0.789062 10.066406 -0.222656 11.261719 C 0.34375 12.460938 1.179688 13.464844 2.273438 14.238281 C 3.351562 15.007812 4.558594 15.453125 5.898438 15.574219 C 7.238281 15.695312 8.519531 15.472656 9.71875 14.925781 C 10.914062 14.359375 11.917969 13.519531 12.710938 12.410156 C 13.464844 11.316406 13.914062 10.109375 14.03125 8.785156 C 14.152344 7.449219 13.929688 6.164062 13.382812 4.96875 C 12.800781 3.734375 11.960938 2.75 10.886719 1.976562 C 9.792969 1.203125 8.582031 0.773438 7.242188 0.652344 C 5.871094 0.53125 4.605469 0.753906 3.421875 1.335938 C 2.191406 1.902344 1.203125 2.722656 0.449219 3.816406 C -0.328125 4.929688 -0.773438 6.136719 -0.890625 7.441406 Z M 1.082031 7.621094 C 1.175781 6.597656 1.492188 5.714844 2.066406 4.960938 C 2.679688 4.136719 3.425781 3.511719 4.273438 3.117188 C 5.085938 2.683594 6.027344 2.535156 7.066406 2.628906 C 8.070312 2.71875 8.953125 3.035156 9.742188 3.609375 C 10.597656 4.242188 11.222656 4.976562 11.585938 5.800781 C 11.996094 6.679688 12.164062 7.605469 12.074219 8.609375 C 11.984375 9.613281 11.648438 10.511719 11.089844 11.304688 C 10.511719 12.113281 9.78125 12.722656 8.902344 13.132812 C 8.003906 13.539062 7.0625 13.707031 6.074219 13.617188 C 5.070312 13.527344 4.191406 13.195312 3.398438 12.632812 C 2.589844 12.054688 1.980469 11.328125 1.589844 10.429688 C 1.164062 9.515625 0.996094 8.589844 1.082031 7.621094 Z M 1.082031 7.621094"></path></g></g></g><g fill-opacity="1" fill="rgb(70.199585%, 38.42926%, 30.979919%)"><g transform="translate(346.92599, 119.363674)"><g><path d="M 0 0 L -0.875 1.777344 L 4.222656 4.28125 L 3.132812 6.5 L -3.371094 6.859375 L -4.371094 8.894531 L 2.433594 8.53125 C 2.347656 9.125 2.386719 9.652344 2.527344 10.132812 C 2.679688 10.804688 2.957031 11.390625 3.347656 11.882812 C 3.765625 12.40625 4.257812 12.816406 4.84375 13.105469 C 5.570312 13.460938 6.328125 13.589844 7.125 13.53125 C 7.914062 13.453125 8.65625 13.199219 9.328125 12.742188 C 9.984375 12.28125 10.5 11.691406 10.871094 10.9375 L 13.085938 6.429688 Z M 6 5.15625 L 10.433594 7.335938 L 9.089844 10.0625 C 8.882812 10.484375 8.585938 10.824219 8.203125 11.105469 C 7.816406 11.363281 7.402344 11.515625 6.976562 11.550781 C 6.523438 11.589844 6.113281 11.519531 5.71875 11.328125 C 5.3125 11.125 5.003906 10.84375 4.773438 10.46875 C 4.539062 10.109375 4.410156 9.691406 4.375 9.222656 C 4.355469 8.730469 4.460938 8.292969 4.660156 7.886719 Z M 6 5.15625"></path></g></g></g><g fill-opacity="1" fill="rgb(70.199585%, 38.42926%, 30.979919%)"><g transform="translate(341.785974, 129.377531)"><g><path d="M 0 0 L -5.796875 6.261719 L -4.339844 7.609375 L 0.109375 2.800781 L 3.277344 5.734375 L 0.265625 8.988281 L 1.707031 10.324219 L 4.71875 7.066406 L 7.898438 10.011719 L 3.449219 14.820312 L 4.902344 16.164062 L 10.699219 9.902344 Z M 0 0"></path></g></g></g></svg>