<svg version="1.0" preserveAspectRatio="xMidYMid meet" height="500" viewBox="0 0 375 374.999991" zoomAndPan="magnify" width="500" xmlns:xlink="http://www.w3.org/1999/xlink" xmlns="http://www.w3.org/2000/svg"><defs><g></g></defs><rect fill-opacity="1" height="449.999989" y="-37.499999" fill="rgb(100%, 100%, 100%)" width="450" x="-37.5"></rect><rect fill-opacity="1" height="449.999989" y="-37.499999" fill="rgb(100%, 100%, 100%)" width="450" x="-37.5"></rect><rect fill-opacity="1" height="449.999989" y="-37.499999" fill="rgb(100%, 100%, 100%)" width="450" x="-37.5"></rect><rect fill-opacity="1" height="449.999989" y="-37.499999" fill="rgb(100%, 100%, 100%)" width="450" x="-37.5"></rect><g fill-opacity="1" fill="rgb(3.138733%, 30.198669%, 14.898682%)"><g transform="translate(50.77811, 184.510265)"><g><path d="M 2.035156 -7.46875 C 1.960938 -3.167969 0.527344 0.453125 3.546875 0.453125 C 5.65625 0.453125 6.261719 0 8.824219 0 C 12.671875 0 14.707031 0.453125 18.554688 0.453125 C 26.324219 0.453125 34.019531 -3.320312 34.019531 -10.558594 C 34.019531 -24.289062 13.878906 -22.703125 13.878906 -29.644531 C 13.878906 -32.132812 15.386719 -33.792969 18.253906 -33.792969 C 24.136719 -33.792969 26.023438 -24.964844 29.492188 -24.964844 C 33.941406 -24.964844 31.832031 -29.417969 28.4375 -37.035156 C 28.058594 -37.941406 27.457031 -38.167969 26.703125 -38.167969 C 25.722656 -38.167969 24.363281 -37.714844 22.628906 -37.714844 C 20.367188 -37.714844 18.933594 -38.167969 15.992188 -38.167969 C 6.636719 -38.167969 1.886719 -33.339844 1.886719 -26.925781 C 1.886719 -12.972656 23.003906 -13.125 23.082031 -7.242188 C 23.082031 -4.976562 21.347656 -4.300781 18.933594 -4.300781 C 8.523438 -4.300781 5.957031 -15.160156 3.015625 -15.160156 C 0.300781 -15.160156 2.035156 -12.070312 2.035156 -7.46875 Z M 2.035156 -7.46875"></path></g></g></g><g fill-opacity="1" fill="rgb(3.138733%, 30.198669%, 14.898682%)"><g transform="translate(86.301839, 184.510265)"><g><path d="M 0.378906 -1.433594 C 0.378906 0 1.660156 0.453125 3.09375 0.453125 C 4.828125 0.453125 5.429688 0 6.9375 0 C 8.449219 0 9.050781 0.453125 10.785156 0.453125 C 12.21875 0.453125 13.5 0 13.5 -1.433594 C 13.5 -3.242188 11.085938 -3.09375 11.085938 -7.542969 C 11.085938 -9.882812 12.292969 -11.238281 14.03125 -11.238281 L 20.96875 -11.238281 C 22.703125 -11.238281 23.910156 -9.882812 23.910156 -7.542969 C 23.910156 -3.09375 22.023438 -3.621094 22.023438 -1.433594 C 22.023438 0.0742188 23.457031 0.453125 25.269531 0.453125 C 27.230469 0.453125 29.644531 0 31.152344 0 C 34.242188 0 36.960938 0.453125 38.921875 0.453125 C 40.65625 0.453125 41.710938 0.0742188 41.710938 -1.433594 C 41.710938 -2.941406 40.578125 -3.09375 38.921875 -5.203125 C 36.429688 -8.371094 30.246094 -31.074219 28.058594 -36.429688 C 27.378906 -38.089844 26.703125 -38.167969 25.570312 -38.167969 C 24.0625 -38.167969 22.777344 -37.714844 19.835938 -37.714844 C 17.199219 -37.714844 16.820312 -38.167969 14.933594 -38.167969 C 13.351562 -38.167969 11.84375 -37.941406 11.84375 -36.582031 C 11.84375 -34.546875 14.859375 -35.527344 13.351562 -31 C 10.484375 -22.402344 6.488281 -8.976562 4.675781 -6.410156 C 2.261719 -3.015625 0.378906 -3.242188 0.378906 -1.433594 Z M 13.199219 -16.667969 C 14.558594 -20.515625 15.839844 -25.191406 16.820312 -27.984375 C 17.046875 -28.585938 17.273438 -28.890625 17.5 -28.890625 C 17.726562 -28.890625 17.953125 -28.585938 18.179688 -27.90625 C 19.007812 -25.117188 20.214844 -20.515625 21.570312 -16.667969 C 21.949219 -15.613281 21.496094 -14.933594 20.441406 -14.933594 L 14.332031 -14.933594 C 13.273438 -14.933594 12.824219 -15.613281 13.199219 -16.667969 Z M 13.199219 -16.667969"></path></g></g></g><g fill-opacity="1" fill="rgb(3.138733%, 30.198669%, 14.898682%)"><g transform="translate(128.387277, 184.510265)"><g><path d="M 0.753906 -36.28125 C 0.753906 -34.09375 3.320312 -35.074219 3.320312 -27.984375 L 3.320312 -9.730469 C 3.320312 -2.640625 0.753906 -3.621094 0.753906 -1.433594 C 0.753906 0.0742188 2.035156 0.453125 3.769531 0.453125 C 5.582031 0.453125 7.84375 0 9.351562 0 C 10.785156 0 12.972656 0.453125 14.707031 0.453125 C 16.441406 0.453125 17.726562 0.0742188 17.726562 -1.433594 C 17.726562 -3.621094 15.160156 -2.640625 15.160156 -9.730469 L 15.160156 -13.878906 C 15.160156 -15.011719 15.914062 -15.765625 17.046875 -15.765625 C 22.777344 -15.765625 19.234375 0.453125 24.4375 0.453125 C 26.398438 0.453125 29.792969 0 30.773438 0 C 32.734375 0 34.546875 0.453125 35.828125 0.453125 C 36.960938 0.453125 37.714844 0.0742188 37.714844 -1.359375 C 37.714844 -3.09375 35.902344 -2.789062 34.546875 -5.582031 C 32.28125 -10.183594 29.71875 -17.648438 27.230469 -17.648438 C 31.378906 -19.386719 34.242188 -22.402344 34.242188 -27.378906 C 34.242188 -36.808594 26.703125 -38.167969 19.082031 -38.167969 C 15.160156 -38.167969 11.84375 -37.789062 8.675781 -37.789062 C 6.863281 -37.789062 4.828125 -38.242188 3.242188 -38.242188 C 1.808594 -38.242188 0.753906 -37.863281 0.753906 -36.28125 Z M 15.085938 -22.328125 L 15.085938 -31.90625 C 15.085938 -33.113281 15.914062 -33.640625 16.972656 -33.640625 C 20.289062 -33.640625 22.175781 -31.453125 22.175781 -27.230469 C 22.175781 -23.15625 20.0625 -20.667969 16.972656 -20.667969 C 15.914062 -20.667969 15.085938 -21.121094 15.085938 -22.328125 Z M 15.085938 -22.328125"></path></g></g></g><g fill-opacity="1" fill="rgb(3.138733%, 30.198669%, 14.898682%)"><g transform="translate(167.229564, 184.510265)"><g><path d="M 9.351562 0 C 12.292969 0 16.894531 0.453125 19.914062 0.453125 C 29.492188 0.453125 35 -2.941406 35 -10.9375 C 35 -16.59375 30.699219 -21.722656 23.835938 -20.742188 C 20.816406 -20.289062 20.742188 -20.589844 20.742188 -20.894531 C 20.742188 -21.796875 31.527344 -21.796875 31.527344 -29.71875 C 31.527344 -35.148438 27.078125 -38.167969 21.042969 -38.167969 C 16.066406 -38.167969 13.953125 -37.714844 9.351562 -37.714844 C 7.84375 -37.714844 5.582031 -38.167969 3.769531 -38.167969 C 2.035156 -38.167969 0.753906 -37.789062 0.753906 -36.28125 C 0.753906 -34.09375 3.320312 -35.074219 3.320312 -27.984375 L 3.320312 -9.730469 C 3.320312 -2.640625 0.753906 -3.621094 0.753906 -1.433594 C 0.753906 0.0742188 2.035156 0.453125 3.769531 0.453125 C 5.582031 0.453125 7.84375 0 9.351562 0 Z M 15.460938 -16.667969 C 15.460938 -17.875 16.292969 -18.40625 17.347656 -18.40625 C 20.894531 -18.40625 22.402344 -15.160156 22.402344 -11.238281 C 22.402344 -5.808594 20.816406 -3.769531 17.347656 -3.769531 C 16.292969 -3.769531 15.460938 -4.300781 15.460938 -5.507812 Z M 15.460938 -24.515625 L 15.460938 -31.90625 C 15.460938 -33.039062 16.21875 -33.640625 17.347656 -33.640625 C 18.855469 -33.640625 20.289062 -32.28125 20.289062 -28.285156 C 20.289062 -24.964844 18.855469 -22.855469 17.347656 -22.855469 C 16.367188 -22.855469 15.460938 -23.15625 15.460938 -24.515625 Z M 15.460938 -24.515625"></path></g></g></g><g fill-opacity="1" fill="rgb(3.138733%, 30.198669%, 14.898682%)"><g transform="translate(203.733777, 184.510265)"><g><path d="M 0.753906 -1.433594 C 0.753906 0.0742188 2.035156 0.453125 3.769531 0.453125 C 5.582031 0.453125 7.84375 0 9.351562 0 C 10.863281 0 13.125 0.453125 14.933594 0.453125 C 16.667969 0.453125 17.953125 0.0742188 17.953125 -1.433594 C 17.953125 -3.621094 15.386719 -2.640625 15.386719 -9.730469 L 15.386719 -27.984375 C 15.386719 -35.074219 17.953125 -34.09375 17.953125 -36.28125 C 17.953125 -37.789062 16.667969 -38.167969 14.933594 -38.167969 C 13.125 -38.167969 10.863281 -37.714844 9.351562 -37.714844 C 7.84375 -37.714844 5.582031 -38.167969 3.769531 -38.167969 C 2.035156 -38.167969 0.753906 -37.789062 0.753906 -36.28125 C 0.753906 -34.09375 3.320312 -35.074219 3.320312 -27.984375 L 3.320312 -9.730469 C 3.320312 -2.640625 0.753906 -3.621094 0.753906 -1.433594 Z M 0.753906 -1.433594"></path></g></g></g><g fill-opacity="1" fill="rgb(3.138733%, 30.198669%, 14.898682%)"><g transform="translate(222.438411, 184.510265)"><g><path d="M 1.507812 -18.855469 C 1.507812 -7.996094 8.75 0.453125 20.289062 0.453125 C 39.824219 0.453125 41.335938 -15.539062 33.566406 -15.539062 C 26.703125 -15.539062 30.171875 -3.621094 21.949219 -3.621094 C 16.367188 -3.621094 14.332031 -11.011719 14.332031 -18.855469 C 14.332031 -26.703125 16.519531 -33.792969 21.796875 -33.792969 C 29.191406 -33.792969 29.945312 -24.964844 34.320312 -24.964844 C 37.863281 -24.964844 35.300781 -30.625 32.8125 -37.035156 C 32.433594 -37.941406 31.832031 -38.167969 31 -38.167969 C 29.792969 -38.167969 28.285156 -37.714844 26.550781 -37.714844 C 24.289062 -37.714844 23.230469 -38.167969 20.289062 -38.167969 C 9.203125 -38.167969 1.507812 -29.71875 1.507812 -18.855469 Z M 1.507812 -18.855469"></path></g></g></g><g fill-opacity="1" fill="rgb(3.138733%, 30.198669%, 14.898682%)"><g transform="translate(261.129841, 184.510265)"><g><path d="M 0.378906 -1.433594 C 0.378906 0 1.660156 0.453125 3.09375 0.453125 C 4.828125 0.453125 5.429688 0 6.9375 0 C 8.449219 0 9.050781 0.453125 10.785156 0.453125 C 12.21875 0.453125 13.5 0 13.5 -1.433594 C 13.5 -3.242188 11.085938 -3.09375 11.085938 -7.542969 C 11.085938 -9.882812 12.292969 -11.238281 14.03125 -11.238281 L 20.96875 -11.238281 C 22.703125 -11.238281 23.910156 -9.882812 23.910156 -7.542969 C 23.910156 -3.09375 22.023438 -3.621094 22.023438 -1.433594 C 22.023438 0.0742188 23.457031 0.453125 25.269531 0.453125 C 27.230469 0.453125 29.644531 0 31.152344 0 C 34.242188 0 36.960938 0.453125 38.921875 0.453125 C 40.65625 0.453125 41.710938 0.0742188 41.710938 -1.433594 C 41.710938 -2.941406 40.578125 -3.09375 38.921875 -5.203125 C 36.429688 -8.371094 30.246094 -31.074219 28.058594 -36.429688 C 27.378906 -38.089844 26.703125 -38.167969 25.570312 -38.167969 C 24.0625 -38.167969 22.777344 -37.714844 19.835938 -37.714844 C 17.199219 -37.714844 16.820312 -38.167969 14.933594 -38.167969 C 13.351562 -38.167969 11.84375 -37.941406 11.84375 -36.582031 C 11.84375 -34.546875 14.859375 -35.527344 13.351562 -31 C 10.484375 -22.402344 6.488281 -8.976562 4.675781 -6.410156 C 2.261719 -3.015625 0.378906 -3.242188 0.378906 -1.433594 Z M 13.199219 -16.667969 C 14.558594 -20.515625 15.839844 -25.191406 16.820312 -27.984375 C 17.046875 -28.585938 17.273438 -28.890625 17.5 -28.890625 C 17.726562 -28.890625 17.953125 -28.585938 18.179688 -27.90625 C 19.007812 -25.117188 20.214844 -20.515625 21.570312 -16.667969 C 21.949219 -15.613281 21.496094 -14.933594 20.441406 -14.933594 L 14.332031 -14.933594 C 13.273438 -14.933594 12.824219 -15.613281 13.199219 -16.667969 Z M 13.199219 -16.667969"></path></g></g></g><g fill-opacity="1" fill="rgb(70.199585%, 38.42926%, 30.979919%)"><g transform="translate(253.115147, 135.119215)"><g><path d="M -0.015625 0 L -0.421875 -8.421875 L -2.191406 -8.335938 L -1.882812 -1.898438 C -2.316406 -2.058594 -2.800781 -2.371094 -3.339844 -2.800781 C -3.957031 -3.332031 -4.472656 -3.929688 -4.867188 -4.578125 C -5.671875 -5.890625 -6.433594 -6.839844 -7.160156 -7.414062 C -7.964844 -8.058594 -8.859375 -8.363281 -9.859375 -8.316406 C -10.527344 -8.285156 -11.183594 -8.039062 -11.800781 -7.613281 C -12.328125 -7.226562 -12.785156 -6.671875 -13.144531 -5.941406 C -13.445312 -5.257812 -13.578125 -4.523438 -13.539062 -3.734375 C -13.5 -2.917969 -13.285156 -2.199219 -12.921875 -1.578125 C -12.523438 -0.898438 -12.027344 -0.390625 -11.433594 -0.0429688 C -10.714844 0.378906 -9.980469 0.542969 -9.195312 0.441406 L -9.28125 -1.359375 C -9.734375 -1.277344 -10.160156 -1.363281 -10.597656 -1.613281 C -10.910156 -1.796875 -11.183594 -2.101562 -11.433594 -2.515625 C -11.632812 -2.886719 -11.746094 -3.320312 -11.769531 -3.820312 C -11.792969 -4.304688 -11.707031 -4.75 -11.542969 -5.136719 C -11.351562 -5.542969 -11.109375 -5.871094 -10.800781 -6.144531 C -10.507812 -6.371094 -10.167969 -6.492188 -9.789062 -6.511719 L -9.621094 -6.519531 C -9.105469 -6.546875 -8.609375 -6.339844 -8.132812 -5.910156 C -7.578125 -5.402344 -6.996094 -4.65625 -6.402344 -3.652344 C -6.136719 -3.210938 -5.683594 -2.65625 -5.042969 -1.957031 C -4.464844 -1.316406 -3.789062 -0.820312 -3.011719 -0.433594 C -2.265625 -0.0742188 -1.574219 0.0742188 -0.910156 0.0429688 Z M -0.015625 0"></path></g></g></g><g fill-opacity="1" fill="rgb(70.199585%, 38.42926%, 30.979919%)"><g transform="translate(252.408439, 125.335726)"><g><path d="M 2.011719 -5.824219 C 2.34375 -6.894531 2.359375 -7.96875 2.046875 -9.066406 C 1.765625 -10.105469 1.1875 -11.0625 0.347656 -11.925781 C -0.464844 -12.75 -1.453125 -13.34375 -2.628906 -13.707031 C -3.785156 -14.066406 -4.9375 -14.136719 -6.101562 -13.925781 C -7.25 -13.695312 -8.273438 -13.214844 -9.128906 -12.496094 C -9.996094 -11.75 -10.585938 -10.871094 -10.910156 -9.828125 C -11.242188 -8.753906 -11.257812 -7.679688 -10.957031 -6.601562 C -10.644531 -5.503906 -10.082031 -4.554688 -9.261719 -3.726562 C -8.40625 -2.890625 -7.402344 -2.292969 -6.273438 -1.945312 C -5.113281 -1.585938 -3.960938 -1.511719 -2.800781 -1.726562 C -1.601562 -1.957031 -0.597656 -2.425781 0.226562 -3.136719 C 1.082031 -3.855469 1.679688 -4.75 2.011719 -5.824219 Z M 0.300781 -6.351562 C 0.0625 -5.585938 -0.355469 -4.953125 -0.980469 -4.464844 C -1.601562 -3.957031 -2.335938 -3.628906 -3.191406 -3.480469 C -4.046875 -3.332031 -4.902344 -3.390625 -5.742188 -3.652344 C -6.613281 -3.921875 -7.351562 -4.355469 -7.957031 -4.957031 C -8.59375 -5.570312 -9.015625 -6.253906 -9.238281 -7.023438 C -9.445312 -7.785156 -9.449219 -8.546875 -9.214844 -9.300781 C -8.980469 -10.054688 -8.554688 -10.667969 -7.949219 -11.179688 C -7.332031 -11.6875 -6.597656 -12.015625 -5.722656 -12.171875 C -4.867188 -12.320312 -4.007812 -12.277344 -3.152344 -12.011719 C -2.285156 -11.742188 -1.550781 -11.292969 -0.957031 -10.695312 C -0.320312 -10.085938 0.0976562 -9.382812 0.320312 -8.617188 C 0.542969 -7.847656 0.535156 -7.105469 0.300781 -6.351562 Z M 0.300781 -6.351562"></path></g></g></g><g fill-opacity="1" fill="rgb(70.199585%, 38.42926%, 30.979919%)"><g transform="translate(256.675121, 112.796198)"><g><path d="M -0.0117188 -0.0078125 L 5.085938 -6.726562 L 3.671875 -7.796875 L -0.226562 -2.664062 C -0.453125 -3.066406 -0.625 -3.617188 -0.761719 -4.289062 C -0.894531 -5.09375 -0.902344 -5.882812 -0.789062 -6.632812 C -0.566406 -8.160156 -0.539062 -9.375 -0.726562 -10.28125 C -0.929688 -11.292969 -1.421875 -12.101562 -2.21875 -12.707031 C -2.75 -13.109375 -3.410156 -13.34375 -4.15625 -13.414062 C -4.8125 -13.453125 -5.519531 -13.324219 -6.261719 -12.996094 C -6.933594 -12.664062 -7.503906 -12.1875 -7.980469 -11.558594 C -8.476562 -10.90625 -8.773438 -10.214844 -8.890625 -9.507812 C -9.023438 -8.730469 -8.96875 -8.023438 -8.738281 -7.375 C -8.457031 -6.589844 -7.996094 -5.992188 -7.332031 -5.5625 L -6.242188 -7 C -6.640625 -7.230469 -6.914062 -7.570312 -7.089844 -8.042969 C -7.210938 -8.382812 -7.222656 -8.792969 -7.148438 -9.269531 C -7.0625 -9.683594 -6.871094 -10.085938 -6.570312 -10.484375 C -6.273438 -10.871094 -5.925781 -11.160156 -5.550781 -11.351562 C -5.144531 -11.535156 -4.746094 -11.632812 -4.335938 -11.648438 C -3.964844 -11.632812 -3.625 -11.507812 -3.320312 -11.277344 L -3.1875 -11.175781 C -2.777344 -10.863281 -2.527344 -10.390625 -2.441406 -9.753906 C -2.339844 -9.007812 -2.371094 -8.0625 -2.558594 -6.910156 C -2.640625 -6.402344 -2.652344 -5.6875 -2.609375 -4.738281 C -2.578125 -3.878906 -2.378906 -3.0625 -2.03125 -2.265625 C -1.691406 -1.511719 -1.257812 -0.953125 -0.726562 -0.550781 Z M -0.0117188 -0.0078125"></path></g></g></g><g fill-opacity="1" fill="rgb(70.199585%, 38.42926%, 30.979919%)"><g transform="translate(262.761305, 104.918421)"><g><path d="M -0.0078125 -0.0117188 L 6.855469 -4.910156 L 5.824219 -6.355469 L 0.578125 -2.609375 C 0.480469 -3.0625 0.476562 -3.636719 0.550781 -4.324219 C 0.664062 -5.128906 0.886719 -5.886719 1.21875 -6.570312 C 1.886719 -7.957031 2.273438 -9.109375 2.363281 -10.03125 C 2.46875 -11.058594 2.242188 -11.976562 1.660156 -12.789062 C 1.273438 -13.332031 0.714844 -13.753906 0.0234375 -14.042969 C -0.589844 -14.277344 -1.304688 -14.363281 -2.113281 -14.269531 C -2.851562 -14.152344 -3.539062 -13.867188 -4.183594 -13.410156 C -4.847656 -12.933594 -5.335938 -12.363281 -5.660156 -11.722656 C -6.015625 -11.019531 -6.175781 -10.328125 -6.148438 -9.640625 C -6.117188 -8.808594 -5.851562 -8.101562 -5.347656 -7.492188 L -3.875 -8.542969 C -4.191406 -8.875 -4.351562 -9.285156 -4.375 -9.789062 C -4.390625 -10.148438 -4.28125 -10.542969 -4.066406 -10.976562 C -3.863281 -11.34375 -3.558594 -11.675781 -3.152344 -11.964844 C -2.757812 -12.246094 -2.335938 -12.414062 -1.921875 -12.488281 C -1.480469 -12.542969 -1.070312 -12.519531 -0.675781 -12.410156 C -0.324219 -12.285156 -0.0351562 -12.0625 0.183594 -11.753906 L 0.28125 -11.617188 C 0.578125 -11.199219 0.675781 -10.671875 0.570312 -10.039062 C 0.445312 -9.296875 0.132812 -8.402344 -0.390625 -7.359375 C -0.617188 -6.898438 -0.839844 -6.21875 -1.082031 -5.300781 C -1.308594 -4.46875 -1.359375 -3.628906 -1.265625 -2.765625 C -1.164062 -1.945312 -0.914062 -1.285156 -0.527344 -0.742188 Z M -0.0078125 -0.0117188"></path></g></g></g><g fill-opacity="1" fill="rgb(70.199585%, 38.42926%, 30.979919%)"><g transform="translate(277.968395, 96.607201)"><g><path d="M 4.761719 -0.179688 C 5.609375 -0.246094 6.382812 -0.476562 7.082031 -0.863281 C 7.796875 -1.242188 8.335938 -1.738281 8.714844 -2.347656 C 9.089844 -2.984375 9.265625 -3.640625 9.210938 -4.320312 C 9.167969 -4.863281 8.972656 -5.394531 8.660156 -5.886719 C 8.351562 -6.335938 7.910156 -6.726562 7.351562 -7.078125 C 6.824219 -7.371094 6.214844 -7.566406 5.507812 -7.691406 L 5.492188 -7.691406 L 3.207031 -7.90625 C 2.574219 -8.007812 2.074219 -8.210938 1.679688 -8.546875 C 1.289062 -8.878906 1.078125 -9.242188 1.046875 -9.636719 C 1.019531 -9.96875 1.117188 -10.296875 1.351562 -10.617188 C 1.582031 -10.957031 1.925781 -11.242188 2.363281 -11.460938 C 2.800781 -11.675781 3.292969 -11.820312 3.835938 -11.867188 C 4.382812 -11.910156 4.890625 -11.84375 5.355469 -11.695312 C 5.824219 -11.550781 6.191406 -11.320312 6.488281 -11.027344 C 6.824219 -10.671875 6.972656 -10.289062 6.949219 -9.859375 L 8.746094 -10.003906 C 8.746094 -10.761719 8.476562 -11.472656 7.941406 -12.113281 C 7.488281 -12.625 6.878906 -13.035156 6.09375 -13.335938 C 5.402344 -13.601562 4.605469 -13.707031 3.699219 -13.632812 C 2.910156 -13.570312 2.152344 -13.34375 1.390625 -12.980469 C 0.691406 -12.621094 0.152344 -12.121094 -0.253906 -11.464844 C -0.628906 -10.84375 -0.792969 -10.191406 -0.738281 -9.496094 C -0.6875 -8.875 -0.507812 -8.34375 -0.171875 -7.914062 C 0.171875 -7.421875 0.613281 -7.046875 1.140625 -6.753906 C 1.652344 -6.429688 2.261719 -6.21875 2.96875 -6.121094 L 5.265625 -5.910156 C 5.882812 -5.804688 6.402344 -5.585938 6.792969 -5.285156 C 7.167969 -4.964844 7.378906 -4.601562 7.414062 -4.175781 C 7.441406 -3.828125 7.34375 -3.503906 7.125 -3.210938 C 6.863281 -2.855469 6.519531 -2.585938 6.09375 -2.367188 C 5.65625 -2.136719 5.164062 -2.007812 4.621094 -1.964844 C 4.078125 -1.921875 3.570312 -1.972656 3.101562 -2.132812 C 2.632812 -2.277344 2.253906 -2.492188 1.96875 -2.804688 C 1.621094 -3.140625 1.46875 -3.523438 1.511719 -3.953125 L -0.285156 -3.8125 C -0.285156 -3.019531 -0.015625 -2.328125 0.535156 -1.699219 C 1.035156 -1.132812 1.644531 -0.738281 2.363281 -0.492188 C 3.132812 -0.21875 3.929688 -0.113281 4.761719 -0.179688 Z M 4.761719 -0.179688"></path></g></g></g><g fill-opacity="1" fill="rgb(70.199585%, 38.42926%, 30.979919%)"><g transform="translate(289.006409, 96.259876)"><g><path d="M 0 0 L 1.773438 0.25 L 3.617188 -12.78125 L 1.84375 -13.035156 Z M 0 0"></path></g></g></g><g fill-opacity="1" fill="rgb(70.199585%, 38.42926%, 30.979919%)"><g transform="translate(292.380524, 96.358594)"><g><path d="M 12.617188 -9.230469 L 9.074219 -0.0820312 L 6.421875 -11.628906 L 4.753906 -12.273438 L 0 0 L 1.667969 0.644531 L 5.28125 -8.6875 L 7.976562 3.089844 L 9.53125 3.691406 L 14.285156 -8.585938 Z M 12.617188 -9.230469"></path></g></g></g><g fill-opacity="1" fill="rgb(70.199585%, 38.42926%, 30.979919%)"><g transform="translate(302.835005, 100.226207)"><g><path d="M 4.53125 4.417969 C 5.132812 4.96875 5.839844 5.390625 6.679688 5.683594 C 7.421875 5.953125 8.261719 6.042969 9.203125 5.980469 C 10.039062 5.925781 10.875 5.683594 11.707031 5.269531 C 12.019531 5.105469 12.398438 4.875 12.824219 4.566406 C 13.105469 4.351562 13.425781 4.070312 13.761719 3.699219 L 14.367188 3.039062 L 10.027344 -0.933594 L 8.820312 0.386719 L 11.792969 3.109375 L 11.75 3.132812 L 11.761719 3.121094 C 11.492188 3.328125 11.210938 3.5 10.90625 3.675781 C 10.003906 4.121094 9.074219 4.28125 8.148438 4.171875 C 7.199219 4.0625 6.398438 3.699219 5.738281 3.097656 C 5.125 2.535156 4.707031 1.863281 4.523438 1.078125 C 4.292969 0.25 4.289062 -0.574219 4.523438 -1.390625 C 4.730469 -2.226562 5.148438 -2.972656 5.753906 -3.632812 C 6.367188 -4.304688 7.078125 -4.785156 7.902344 -5.082031 C 8.738281 -5.363281 9.550781 -5.441406 10.371094 -5.308594 C 11.152344 -5.167969 11.84375 -4.824219 12.46875 -4.25 C 13.027344 -3.738281 13.429688 -3.101562 13.65625 -2.359375 C 13.882812 -1.574219 13.910156 -0.75 13.730469 0.0742188 L 15.183594 1.40625 C 15.683594 0.0742188 15.777344 -1.242188 15.453125 -2.546875 C 15.152344 -3.746094 14.570312 -4.75 13.675781 -5.570312 C 12.828125 -6.347656 11.839844 -6.84375 10.714844 -7.050781 C 9.546875 -7.257812 8.421875 -7.175781 7.332031 -6.792969 C 6.234375 -6.402344 5.265625 -5.75 4.433594 -4.84375 C 3.617188 -3.949219 3.046875 -2.925781 2.765625 -1.785156 C 2.472656 -0.613281 2.480469 0.523438 2.808594 1.605469 C 3.125 2.71875 3.703125 3.660156 4.53125 4.417969 Z M 4.53125 4.417969"></path></g></g></g><g fill-opacity="1" fill="rgb(70.199585%, 38.42926%, 30.979919%)"><g transform="translate(312.67186, 109.366397)"><g><path d="M 0 0 L 0.800781 1.734375 L 4.371094 1.503906 L 6.734375 6.609375 L 4.25 9.179688 L 5.050781 10.914062 L 14.875 0.800781 L 14.066406 -0.945312 Z M 6.269531 1.375 L 12.210938 0.964844 L 8.058594 5.242188 Z M 6.269531 1.375"></path></g></g></g><g fill-opacity="1" fill="rgb(70.199585%, 38.42926%, 30.979919%)"><g transform="translate(317.808167, 121.284601)"><g><path d="M 0 0 L 0.160156 1.78125 L 5.265625 1.324219 L 5.511719 4.054688 C 5.578125 4.796875 5.824219 5.476562 6.242188 6.078125 C 6.628906 6.652344 7.171875 7.121094 7.84375 7.453125 C 8.480469 7.761719 9.164062 7.898438 9.886719 7.835938 C 10.613281 7.769531 11.257812 7.511719 11.847656 7.09375 C 12.445312 6.644531 12.882812 6.085938 13.175781 5.453125 C 13.464844 4.785156 13.585938 4.089844 13.515625 3.335938 L 13.109375 -1.179688 Z M 7.046875 1.160156 L 11.488281 0.761719 L 11.734375 3.496094 C 11.773438 3.917969 11.703125 4.320312 11.539062 4.714844 C 11.359375 5.082031 11.113281 5.394531 10.800781 5.636719 C 10.472656 5.878906 10.121094 6.015625 9.726562 6.050781 C 9.320312 6.089844 8.945312 6.015625 8.59375 5.832031 C 8.230469 5.652344 7.929688 5.390625 7.703125 5.0625 C 7.457031 4.6875 7.332031 4.304688 7.292969 3.894531 Z M 7.046875 1.160156"></path></g></g></g><g fill-opacity="1" fill="rgb(70.199585%, 38.42926%, 30.979919%)"><g transform="translate(319.051534, 130.897056)"><g><path d="M -2.015625 6.457031 C -2.34375 7.625 -2.359375 8.804688 -2.054688 9.960938 C -1.75 11.117188 -1.171875 12.144531 -0.328125 13.011719 C 0.5 13.875 1.5 14.46875 2.667969 14.796875 C 3.835938 15.125 5.011719 15.140625 6.164062 14.851562 C 7.320312 14.546875 8.351562 13.96875 9.234375 13.113281 C 10.085938 12.265625 10.683594 11.265625 11.007812 10.113281 C 11.335938 8.945312 11.351562 7.769531 11.058594 6.617188 C 10.746094 5.425781 10.164062 4.410156 9.335938 3.550781 C 8.492188 2.683594 7.492188 2.101562 6.320312 1.773438 C 5.125 1.4375 3.960938 1.425781 2.816406 1.75 C 1.628906 2.046875 0.621094 2.617188 -0.230469 3.464844 C -1.101562 4.320312 -1.699219 5.320312 -2.015625 6.457031 Z M -0.292969 6.941406 C -0.0429688 6.050781 0.382812 5.320312 1.015625 4.742188 C 1.695312 4.113281 2.464844 3.683594 3.277344 3.472656 C 4.074219 3.222656 4.933594 3.242188 5.839844 3.496094 C 6.714844 3.742188 7.445312 4.167969 8.054688 4.8125 C 8.707031 5.515625 9.140625 6.265625 9.328125 7.058594 C 9.546875 7.910156 9.542969 8.757812 9.296875 9.632812 C 9.050781 10.511719 8.609375 11.25 7.980469 11.863281 C 7.332031 12.484375 6.585938 12.90625 5.734375 13.125 C 4.871094 13.339844 4.007812 13.332031 3.148438 13.089844 C 2.269531 12.84375 1.542969 12.402344 0.933594 11.777344 C 0.3125 11.128906 -0.109375 10.378906 -0.308594 9.519531 C -0.535156 8.640625 -0.53125 7.789062 -0.292969 6.941406 Z M -0.292969 6.941406"></path></g></g></g><g fill-opacity="1" fill="rgb(70.199585%, 38.42926%, 30.979919%)"><g transform="translate(314.724703, 144.592931)"><g><path d="M 0 0 L -1.070312 1.433594 L 3.039062 4.496094 L 1.707031 6.285156 L -4.125 5.53125 L -5.347656 7.175781 L 0.753906 7.972656 C 0.578125 8.488281 0.527344 8.960938 0.570312 9.410156 C 0.597656 10.035156 0.746094 10.597656 1.015625 11.101562 C 1.296875 11.632812 1.664062 12.078125 2.140625 12.433594 C 2.722656 12.867188 3.375 13.105469 4.09375 13.1875 C 4.804688 13.246094 5.507812 13.144531 6.179688 12.851562 C 6.839844 12.546875 7.390625 12.109375 7.84375 11.5 L 10.554688 7.867188 Z M 4.476562 5.566406 L 8.050781 8.230469 L 6.410156 10.433594 C 6.15625 10.773438 5.835938 11.023438 5.453125 11.210938 C 5.0625 11.375 4.671875 11.445312 4.289062 11.402344 C 3.878906 11.363281 3.527344 11.234375 3.210938 10.996094 C 2.882812 10.753906 2.652344 10.449219 2.511719 10.082031 C 2.363281 9.722656 2.316406 9.328125 2.363281 8.910156 C 2.429688 8.464844 2.589844 8.097656 2.835938 7.769531 Z M 4.476562 5.566406"></path></g></g></g><g fill-opacity="1" fill="rgb(70.199585%, 38.42926%, 30.979919%)"><g transform="translate(308.510855, 152.634291)"><g><path d="M 0 0 L -6.175781 4.601562 L -5.109375 6.039062 L -0.367188 2.503906 L 1.960938 5.628906 L -1.246094 8.019531 L -0.1875 9.445312 L 3.023438 7.050781 L 5.359375 10.191406 L 0.617188 13.722656 L 1.6875 15.160156 L 7.863281 10.554688 Z M 0 0"></path></g></g></g></svg>